<?xml version="1.0" encoding="utf-8"?>
<!-- Generator: Adobe Illustrator 23.0.2, SVG Export Plug-In . SVG Version: 6.00 Build 0)  -->
<svg version="1.1" id="Layer_1" xmlns="http://www.w3.org/2000/svg" xmlns:xlink="http://www.w3.org/1999/xlink" x="0px" y="0px"
	 viewBox="0 0 491.5942 180.6992" style="enable-background:new 0 0 491.5942 180.6992;" xml:space="preserve">
<style type="text/css">
	.st0{fill:#E74C3C;}
	.st1{opacity:0.5;fill:#939598;enable-background:new    ;}
	.st2{fill:#231F20;}
	.st3{fill:#C49A6C;}
	.st4{clip-path:url(#SVGID_2_);}
	.st5{fill:#5AB2B0;stroke:#231F20;stroke-width:1.5;stroke-linecap:round;stroke-linejoin:round;stroke-miterlimit:10;}
	.st6{fill:#FFC661;stroke:#231F20;stroke-width:1.5;stroke-linejoin:round;stroke-miterlimit:10;}
	.st7{fill:#F7A600;stroke:#231F20;stroke-width:1.5;stroke-linejoin:round;stroke-miterlimit:10;}
	.st8{fill:#7DCECE;stroke:#231F20;stroke-width:1.5;stroke-linejoin:round;stroke-miterlimit:10;}
	.st9{fill:#5AB2B0;}
	.st10{fill:#468986;}
	.st11{opacity:0.5;fill:#FFFFFF;enable-background:new    ;}
	.st12{clip-path:url(#SVGID_4_);}
	
		.st13{opacity:0.5;fill:none;stroke:#231F20;stroke-width:1.5;stroke-linecap:round;stroke-linejoin:round;stroke-miterlimit:10;enable-background:new    ;}
</style>
<g>
	<g>
		<path class="st0" d="M203.1926,111.3447h-11.4854v19.7734h-19.707v-19.7734h-40.7188V97.3154l41.8282-61.6006h18.5976v59.9697
			h11.4854V111.3447z M172.0002,95.6845V79.5009c0-2.6972,0.1084-6.6123,0.3262-11.746c0.2187-5.1329,0.3916-8.1133,0.5224-8.9395
			h-0.5224c-1.6094,3.5674-3.5459,7.0469-5.8077,10.4404l-17.4882,26.4287C149.0305,95.6845,172.0002,95.6845,172.0002,95.6845z"/>
	</g>
	<g>
		<path class="st0" d="M361.092,111.3447h-11.4854v19.7734h-19.707v-19.7734h-40.7187V97.3154l41.8281-61.6006h18.5976v59.9697
			h11.4854V111.3447z M329.8996,95.6845V79.5009c0-2.6972,0.1084-6.6123,0.3262-11.746c0.2177-5.1329,0.3916-8.1133,0.5224-8.9395
			h-0.5224c-1.6094,3.5674-3.5459,7.0469-5.8076,10.4404l-17.4883,26.4287C306.9299,95.6845,329.8996,95.6845,329.8996,95.6845z"/>
	</g>
	<g>
		<path class="st0" d="M279.2434,83.417c0,16.6621-2.7305,28.9951-8.1895,36.999c-5.46,8.0049-13.8672,12.0068-25.2207,12.0068
			c-11.0068,0-19.3057-4.1328-24.8955-12.3984c-5.5899-8.2656-8.3848-20.4678-8.3848-36.6074
			c0-16.836,2.7178-29.2452,8.1563-37.2286c5.4375-7.9824,13.8125-11.9746,25.124-11.9746c11.0059,0,19.3252,4.1758,24.96,12.5293
			C276.426,55.0957,279.2434,67.3213,279.2434,83.417z M232.5871,83.417c0,11.7021,1.0107,20.0879,3.0332,25.1552
			c2.0225,5.0684,5.4268,7.6026,10.2129,7.6026c4.6982,0,8.0908-2.5664,10.1797-7.7012c2.0879-5.1328,3.1318-13.4844,3.1318-25.0566
			c0-11.7032-1.0547-20.1094-3.165-25.2217c-2.1104-5.1113-5.4922-7.667-10.1465-7.667c-4.7422,0-8.1357,2.5557-10.1807,7.667
			C233.6076,63.3076,232.5871,71.7138,232.5871,83.417z"/>
	</g>
	<path class="st1" d="M94.884,73.4209c17.5488,0.0136,31.8594-10.1123,50.8545-10.8731c9.5215-0.3808,19.4882-3.334,28.8672-5.1484
		c7.0058-1.3555,17.3662-2.2422,20.7402-9.0703c11.4619-23.2051-26.6885-11.8086-36.333-10.5957
		c-19.2559,2.4209-37.3281,8.9277-55.4795,14.7988c-6.3037,2.0391-17.9756,2.2168-22.9024,6.9785
		c-5.9267,5.7266,3.1153,14.708,9.92,13.8526L94.884,73.4209z"/>
	<g>
		<polygon class="st2" points="196.5764,35.2343 202.2434,17.4795 196.51,14.6308 196.51,7.706 189.7434,7.706 192.5705,1.5927 
			186.6984,0 180.9103,1.1308 173.4103,12.6308 181.7434,31.9033 192.5764,35.2343 		"/>
		<polygon class="st3" points="190.2287,31.9033 196.7434,18.331 190.5734,16.6836 192.0783,11.705 185.4943,10.5361 
			186.4103,6.5078 184.0783,5.4687 180.2434,6.248 178.9103,7.5478 184.0422,10.331 181.0783,16.6416 180.2434,18.5791 
			183.4103,22.2285 189.4103,24.4365 189.2434,27.0361 190.0783,28.8076 		"/>
		<path class="st2" d="M188.6906,17.5488c0.7725,3.9102,1.4903,6.9756-0.5312,8.9736c-0.8946,0.8828-8.1465-4.705-8.916-8.6152
			c-0.7696-3.9102,3.5292-8.4512,4.7626-8.6943C185.2336,8.9717,187.923,13.6386,188.6906,17.5488z"/>
		<g>
			<g>
				<defs>
					<path id="SVGID_1_" d="M188.2434-9.3272l-9,14.6065l5.833,3.9336l-5.1797,8.2763l3.8467,5.5v2.3672l7,2.4912v6.4717
						l15.9804,3.7022l-21.9804,13.5087c0,0-140.4151,36.0498-142.1377,36.5498c-1.7227,0.5,9-42.5156,10-44.6669
						c1-2.1504,11.1669-26.251,13.6669-27.3331C68.7726,14.998,188.2434-9.3272,188.2434-9.3272z"/>
				</defs>
				<clipPath id="SVGID_2_">
					<use xlink:href="#SVGID_1_"  style="overflow:visible;"/>
				</clipPath>
				<g class="st4">
					<path class="st5" d="M84.2355,35.9316c-3.0722,1.2637-3.7685,1.4492-6.6796,2.042c-2.751,0.5625-6.4512,1.7715-7.7149,4.3135
						c-2.626,5.292,1.6055,13.7939,3.2793,18.8525c1.0166,3.0713,1.9443,7.1104,4.7197,9.1348
						c2.4619,1.7988,6.1934,0.6289,8.9424-0.3594c2.0283-0.7295,8.1826-2.3144,9.3467-3.998
						c1.7519-2.5332-1.4258-8.833-2.4082-11.5371c-1.2891-3.5547-2.209-6.7676-2.9766-10.3145
						c-0.7627-3.5117-2.3789-9.0215-4.0976-8.8555L84.2355,35.9316z"/>
					<path class="st6" d="M159.7219,10.0205c8.7568-3.0996,17.4267-5.8252,25.6054-9.2324
						c8.7432-3.6397,14.4287-6.5704,23.3067-4.5704c7.084,1.5967,19.081,0.5899,23.997,5.8956
						c5.7989,6.2607-10.4228,13.1572-14.999,19.9365c-3.6074,5.3486-4.8164,6.5879-11.5381,9.0185
						c-8.0312,2.9034-77.9804,26.9053-87.3613,27.6358c-7.1816-7.4375-8.2627-16.292-9.2803-24.9199
						c-0.7617-6.4629-0.3916-6.0059,5.752-8.8418C119.0803,23.1533,149.9963,13.4658,159.7219,10.0205z"/>
					<path class="st7" d="M116.134,28.3838c0,0,81.2373-27.836,81.9482-27.5791c0.711,0.2548,6.0674,5.3584-0.1084,7.5107
						c-6.1738,2.1523-83.0215,27.4688-83.0215,27.4688S114.3078,31.0849,116.134,28.3838z"/>
					<path class="st7" d="M199.0041,13.4843c0,0,7.1963-2.4599,5.8281,3.6768c-1.3691,6.1426-85.4863,28.9668-85.4863,28.9668
						s-5.8096-4.8848-3.7803-6.2334C117.5939,38.5439,199.0041,13.4843,199.0041,13.4843z"/>
					<path class="st7" d="M205.4016,22.5947c0,0,6.4091-0.4688,3.7011,2.9248c-2.7021,3.3936-86.5908,29.5557-86.5908,29.5557
						s-3.3086-3.293-0.4736-4.6211C124.8723,49.125,205.4016,22.5947,205.4016,22.5947z"/>
					<path class="st8" d="M100.9377,29.8271c-1.4483,0.2696-2.9365,0.041-4.4873,0.9922c-2.3076,1.4121-1.7471,1.2988-4.5098,1.7109
						c-4.2344,0.6319-4.5967,2.7657-4.5185,6.9063c0.0586,3.1055,0.3242,6.6934,0.9091,9.7734
						c0.5791,3.0518,1.6993,6.166,2.3838,8.9278c0.6534,2.6582,2.2666,6.3144,4.4659,7.7265
						c5.0322,3.2266,11.4658-1.6308,15.8496-3.3496c3.5664-1.3984,8.2998-0.1435,6.4345-5.498
						c-1.1894-3.4102-2.9384-6.8418-3.8945-10.4668c-0.4111-1.5723-1.5078-3.1387-1.5049-4.7656
						c0.0049-1.6397-0.5976-2.8516-0.664-4.6866c-0.0782-2.0947,0.3115-10.0654-4.0528-9.1045
						C107.3488,27.9931,103.881,29.2783,100.9377,29.8271z"/>
					<path class="st9" d="M105.506,45.8877c0.7198,3.4687,1.5674,13.9121,6.0323,14.5332c1.3017-1.791-1.878-6.1358-2.4737-8.211
						c-0.79-2.748-0.416-5.5351-0.832-8.3379c-0.4678-3.1601-0.915-6.1601-1.9219-9.3711c-0.164-0.5195-0.3457-3.7597-0.6045-3.9531
						c-1.5-1.123-3.1152,0.5459-2.3232,2.3242C103.383,32.872,104.6096,41.5625,105.506,45.8877z"/>
					<path class="st9" d="M93.0275,51.1552c0.4951,2.586,2.9463,15.6944,7.5303,13.0332
						c-1.7529-4.8085-3.5771-10.2617-4.5478-15.2812c-0.5118-2.6426-1.17-5.8242-1.25-8.3721
						c-0.0665-2.0996,0.7412-4.9443-0.5518-6.7783c-0.2695,0.0332-0.5137,0.125-0.7402,0.2695
						C93.468,34.0263,90.467,37.7881,93.0275,51.1552z"/>
					<path class="st10" d="M99.7238,35.2549c-1.3838-2.3536-4.5088,1.6718-1.9795,2.7363c1.2774,0.5361,2.4883-1.334,2.2061-2.4102
						C99.926,35.4843,99.7238,35.2549,99.7238,35.2549z"/>
					<path class="st10" d="M101.2062,43.4775c-1.3173-2.7676-4.916,2.417-2.0546,4.082c1.8496,1.0762,3.6308-1.4697,2.3994-3.5429
						L101.2062,43.4775z"/>
					<path class="st10" d="M103.6984,52.6279c-0.0927-0.8789-0.2265-1.0625-1.0342-1.4414
						c-1.3818-0.6504-2.3759,0.7227-2.3818,2.0391c-0.0127,2.623,4.0742,3.1503,3.2578,0.3623
						C103.5402,53.5879,103.7238,52.8701,103.6984,52.6279z"/>
					<path class="st10" d="M105.4455,59.7314c-0.5967-2.3203-3.332-0.8193-2.9092,1.0899c0.4805,2.164,3.4766,1.5507,3.0752-0.6172
						L105.4455,59.7314z"/>
					<path class="st2" d="M231.466-2.0791c-2.4492-0.3575-5.8857-1.4932-8.5762-1.1817c-3.5361,0.4024-2.0078,2.4356-1.8193,4.2852
						c0.1895,1.8584,0.4229,3.874,0.7061,5.6621c0.3779,2.3965,1.375,4.3838,3.8876,5.4629
						c2.5127,1.082,3.4473,0.9043,5.1807-1.2559c2.8086-3.5078,8.6182-8.5879,7.8867-12.1035
						C238.7316-1.21,233.8976-1.7207,231.466-2.0791z"/>
					<path class="st11" d="M236.6418,1.6006c0,0-7.6338,7.0937-10.2647,8.1992c-2.6328,1.1054-3.1904-1.041-2.3711-3.002
						c0.8174-1.959,12.3487-5.8916,12.3487-5.8916S237.4172,0.8906,236.6418,1.6006z"/>
				</g>
			</g>
		</g>
	</g>
	<path class="st1" d="M278.1164,154.459c1.96,7.8076,11.2812,7.3252,17.6484,9.2002c6.8379,2.0136,12.8399,4.3974,20.334,5.3652
		c7.8574,1.0166,15.8555,3.5224,23.0821,4.0058c9.2539,0.6182,17.6835-2.7539,27.0507-2.6669
		c9.3887,0.0869,15.458-0.294,4.834-6.9981c-11.8926-7.5068-20.8027-21.2373-34.8847-25.5537
		c-8.4385-2.5869-18.4512-3.4453-27.295-3.4482c-4.6054-0.002-22.0859-0.9659-24.0019,3.333
		C284.884,137.6963,277.1027,150.4189,278.1164,154.459z"/>
	<g>
		<path class="st2" d="M302.235,112.5h-6.2286l3.1143,7.2988l-5.1143-1.4297l2.334,5.7979l-2.334,6.3652l0.7286,5.7461
			l3.3857,5.0791c0,0,18.2187-19.5244,17.5527-21.0244c-0.667-1.5-3.7724-7.1465-5.4814-7.833
			C308.481,111.8134,302.235,112.5,302.235,112.5z"/>
		<g>
			<g>
				<defs>
					<polygon id="SVGID_3_" points="320.9391,105.79 301.7983,109.1357 309.8608,119.8525 301.7983,118.8857 301.7983,126.0947 
						297.1772,127.7431 297.1772,142.0088 278.024,143.4834 274.8863,172.6416 367.8268,186.6416 429.8404,183.6416 
						392.9341,115.334 					"/>
				</defs>
				<clipPath id="SVGID_4_">
					<use xlink:href="#SVGID_3_"  style="overflow:visible;"/>
				</clipPath>
				<g class="st12">
					<path class="st5" d="M258.3541,88.331c-3.1543-1.0449-3.8027-1.3584-6.3945-2.8056c-2.4532-1.3662-6.0498-2.8623-8.6631-1.7569
						c-5.4424,2.2998-7.7764,11.5059-9.8028,16.4336c-1.2314,2.9922-3.163,6.6582-2.3779,10.002
						c0.6953,2.9707,4.2871,4.5156,7.0156,5.5586c2.0137,0.7675,7.712,3.5761,9.6944,3.0595
						c2.9795-0.7802,4.6748-7.6279,5.6963-10.3173c1.3379-3.5362,2.7373-6.5723,4.4658-9.7618
						c1.7119-3.1601,4.0752-8.3925,2.6631-9.3877L258.3541,88.331z"/>
					<path class="st6" d="M332.4879,117.8896c8.6592,3.3574,17.0127,6.9414,25.4375,9.6895
						c9.0019,2.9394,15.2217,4.4238,20.6514,11.7275c4.332,5.8291,14.0849,12.8848,14.3535,20.1133
						c0.3183,8.5283-16.4785,3.1826-24.3702,5.3428c-6.2207,1.7031-7.9462,1.8554-14.6298-0.6836
						c-7.9825-3.0342-76.6709-30.4307-84.2598-35.9922c-0.5996-10.3203,4.3535-17.7402,9.208-24.9453
						c3.6328-5.3975,3.6152-4.8116,10.1221-2.9561C293.1079,101.3554,322.8639,114.1631,332.4879,117.8896z"/>
					<path class="st7" d="M287.4644,103.4013c0,0,79.75,31.8477,80.1202,32.5049c0.375,0.6563,1.1093,8.0205-4.9766,5.626
						c-6.0859-2.3926-80.8633-33.2891-80.8633-33.2891S284.3188,104.2588,287.4644,103.4013z"/>
					<path class="st7" d="M360.0182,146.122c0,0,7.0625,2.8262,2.0244,6.5889c-5.0459,3.7637-83.7119-33.7598-83.7119-33.7598
						s-1.2188-7.4912,1.1982-7.1914C281.9478,112.0576,360.0182,146.122,360.0182,146.122z"/>
					<path class="st7" d="M358.9302,157.2021c0,0,5.1679,3.8223,0.9023,4.6309c-4.2617,0.8115-84.9336-34.0332-84.9336-34.0332
						s-0.3623-4.6543,2.6553-3.8145C280.5709,124.8271,358.9302,157.2021,358.9302,157.2021z"/>
					<path class="st8" d="M275.0005,94.5898c-1.2774-0.7392-2.2559-1.8838-4.0528-2.1728
						c-2.6699-0.4336-2.1709-0.1543-4.5341-1.6416c-3.6221-2.2823-5.2881-0.9014-7.9307,2.29
						c-1.9766,2.3945-4.1152,5.2881-5.6797,8.0039c-1.5478,2.6924-2.7305,5.7852-4.0137,8.3232
						c-1.2353,2.4434-2.3964,6.2686-1.6464,8.7725c1.707,5.7246,9.7558,6.2383,14.2002,7.791
						c3.6191,1.2657,6.3876,5.3028,8.4638,0.0254c1.3233-3.3613,2.2324-7.1035,3.8711-10.4746
						c0.7119-1.4609,0.9024-3.3633,1.9658-4.5947c1.0713-1.2412,1.4053-2.5537,2.5489-3.9883
						c1.3076-1.6387,6.7959-7.4307,2.8642-9.5449C281.0572,97.3789,277.5894,96.0918,275.0005,94.5898z"/>
					<path class="st9" d="M267.9927,109.747c-1.7159,3.0997-7.8799,11.5723-4.8985,14.9532
						c2.1524-0.5118,2.5762-5.877,3.4766-7.8399c1.1914-2.5976,3.293-4.4678,4.8047-6.8652
						c1.7051-2.7012,3.3213-5.2676,4.6484-8.3594c0.2168-0.5,2.1914-3.0762,2.1231-3.3906
						c-0.4073-1.8301-2.7198-1.6172-3.2793,0.2471C274.8677,98.4922,270.1334,105.8818,267.9927,109.747z"/>
					<path class="st9" d="M255.0952,105.6064c-1.3076,2.2852-7.9932,13.8242-2.7842,14.793
						c1.8047-4.7891,3.9776-10.1143,6.5127-14.5527c1.333-2.3379,2.9072-5.1807,4.5088-7.1641
						c1.3184-1.6358,3.7832-3.2676,4.002-5.5c-0.2246-0.1494-0.4707-0.2402-0.7383-0.2783
						C266.5963,92.9043,261.8677,93.8017,255.0952,105.6064z"/>
					<path class="st10" d="M270.5406,97.914c0.4834-2.6865-4.5117-1.6718-3.2842,0.7852c0.6192,1.2392,2.7549,0.6103,3.2442-0.3877
						C270.5464,98.2197,270.5406,97.914,270.5406,97.914z"/>
					<path class="st10" d="M266.3062,105.1162c0.8038-2.958-5.3056-1.3711-4.2216,1.7568c0.6992,2.0205,3.7138,1.252,4.1298-1.124
						L266.3062,105.1162z"/>
					<path class="st10" d="M262.231,113.6797c0.5-0.7276,0.5196-0.9532,0.1553-1.7686c-0.626-1.3926-2.2734-0.999-3.1357-0.0059
						c-1.7217,1.9815,1.0332,5.0469,2.2324,2.3995C261.4829,114.3047,262.0934,113.8799,262.231,113.6797z"/>
					<path class="st10" d="M258.9233,120.206c1.0596-2.1484-1.9931-2.7939-2.914-1.0703c-1.0469,1.9551,1.624,3.4434,2.7314,1.5361
						L258.9233,120.206z"/>
					<path class="st2" d="M394.7798,155.4824c-1.6231-1.8682-3.4903-4.9697-5.7305-6.4873c-2.9463-2-3.1103,0.5381-4.1738,2.0644
						c-1.0684,1.5313-2.2061,3.2129-3.1582,4.752c-1.2735,2.0654-1.8135,4.2227-0.6114,6.6777
						c1.2012,2.458,2.0245,2.9346,4.7461,2.4258c4.418-0.8301,12.1348-0.8965,13.8711-4.0371
						C399.7231,160.8779,396.3911,157.3388,394.7798,155.4824z"/>
					<path class="st11" d="M396.3072,161.6455c0,0-10.4121,0.4033-13.1289-0.4737c-2.7139-0.8779-1.7392-2.8681,0.1592-3.8212
						c1.8955-0.9532,13.209,3.583,13.209,3.583S397.3589,161.6142,396.3072,161.6455z"/>
				</g>
			</g>
		</g>
		<path class="st13" d="M490.8442,152.2392c-20,13.4033-86.6133-14.2343-74.9189,6.92c5.2842,9.5566,28.8642,2.9394,23.1396,14.9765
			c-4.2148,8.8613-17.6113-1.7734-26.2207-3.0488c-12.7959-1.8945-16.5029,4.543-26.7265,7.8496
			c-10.4297,3.373-23.2364-2.5586-8.2969-8.1231c6.7822-2.5253,22.8359-0.0039,21.0234-9.7255"/>
	</g>
</g>
</svg>
